<?xml version="1.0" standalone="no"?>
<!DOCTYPE svg PUBLIC "-//W3C//DTD SVG 20010904//EN"
 "http://www.w3.org/TR/2001/REC-SVG-20010904/DTD/svg10.dtd">
<svg version="1.0" xmlns="http://www.w3.org/2000/svg"
 width="2600.000000pt" height="1000.000000pt" viewBox="0 0 2600.000000 1000.000000"
 preserveAspectRatio="xMidYMid meet">

<g transform="translate(0.000000,1000.000000) scale(0.100000,-0.100000)"
fill="#000000" stroke="none">
<path d="M12685 9590 c-38 -4 -86 -15 -107 -23 -20 -9 -58 -21 -85 -27 -61
-14 -185 -74 -222 -108 -15 -15 -40 -35 -54 -45 -24 -16 -97 -146 -97 -171 0
-6 5 -28 11 -49 13 -47 49 -71 134 -87 53 -10 75 -9 138 5 79 17 100 32 111
77 3 15 24 48 46 73 22 25 40 51 40 56 0 6 17 17 38 25 20 8 55 25 77 37 37
20 53 22 210 22 l170 0 68 -32 c38 -18 87 -52 112 -78 38 -38 45 -51 45 -84 0
-36 -19 -71 -38 -71 -4 0 -22 -13 -40 -30 -18 -16 -41 -30 -51 -30 -10 0 -40
-12 -66 -26 -27 -14 -74 -30 -104 -36 -31 -5 -69 -17 -85 -25 -16 -8 -50 -21
-76 -29 -26 -8 -55 -23 -65 -34 -10 -11 -23 -20 -30 -20 -6 0 -21 -9 -33 -20
-21 -20 -22 -29 -22 -179 0 -222 14 -209 -228 -214 -340 -7 -472 -29 -652
-107 -36 -16 -79 -31 -97 -35 -18 -3 -49 -20 -70 -37 -38 -30 -54 -39 -213
-124 -47 -25 -94 -54 -105 -64 -11 -10 -40 -28 -65 -40 -25 -11 -56 -27 -70
-35 -27 -16 -61 -33 -130 -66 -25 -12 -57 -30 -72 -40 -14 -11 -31 -19 -38
-19 -17 0 -150 -59 -180 -80 -14 -9 -43 -23 -65 -30 -22 -7 -85 -34 -141 -61
-55 -26 -119 -52 -142 -58 -22 -7 -44 -16 -47 -21 -3 -4 -29 -16 -58 -26 -28
-9 -57 -21 -63 -25 -6 -5 -42 -20 -80 -33 -38 -13 -107 -38 -154 -56 -47 -17
-112 -40 -145 -50 -33 -10 -82 -27 -110 -38 -67 -26 -133 -48 -230 -77 -44
-12 -98 -30 -120 -39 -22 -8 -50 -15 -62 -16 -13 0 -51 -11 -86 -24 -34 -13
-82 -27 -106 -31 -24 -4 -62 -15 -85 -25 -22 -10 -66 -22 -96 -26 -30 -4 -77
-15 -103 -26 -27 -10 -83 -23 -124 -29 -42 -6 -97 -19 -122 -29 -25 -9 -75
-21 -111 -25 -36 -4 -93 -16 -127 -26 -34 -11 -99 -24 -144 -30 -45 -5 -95
-17 -110 -25 -16 -8 -63 -19 -106 -24 -43 -6 -103 -19 -133 -30 -30 -10 -88
-24 -128 -30 -41 -6 -90 -17 -109 -25 -20 -9 -68 -20 -107 -26 -108 -16 -303
-83 -402 -137 -96 -52 -141 -91 -158 -136 -23 -60 -14 -130 22 -169 57 -61
231 -74 382 -28 36 10 99 25 140 31 41 7 93 19 114 27 22 7 71 18 110 24 39 6
84 18 99 26 16 8 71 21 123 28 52 8 107 21 123 29 16 9 58 20 95 26 36 6 88
19 114 29 27 11 70 22 98 26 27 4 81 18 119 30 39 13 92 27 120 30 27 4 62 14
78 22 16 8 63 20 105 28 42 7 93 20 112 28 19 9 64 21 100 27 35 6 77 18 93
26 16 9 62 22 103 29 41 8 87 21 102 29 15 8 57 20 92 26 35 6 77 18 92 26 15
8 61 21 102 29 41 7 85 20 98 29 13 8 49 19 81 25 32 6 77 19 101 29 23 11 63
22 89 26 26 4 67 16 91 26 23 11 67 25 97 31 30 6 66 18 81 25 15 8 59 21 98
29 39 8 80 21 93 29 12 8 49 21 82 30 33 8 80 21 105 30 25 8 66 22 93 31 26
8 68 22 95 30 26 9 67 23 92 31 25 9 73 24 107 34 35 9 68 22 75 28 7 6 41 17
74 26 34 9 81 25 105 36 24 11 53 20 64 20 11 0 42 11 70 24 27 12 104 40 170
61 66 21 138 46 160 56 22 10 63 25 90 34 148 49 174 59 220 81 28 13 57 24
65 24 9 0 31 8 50 19 19 10 60 24 90 31 30 7 71 21 90 30 19 10 60 21 90 25
30 4 78 16 105 27 38 16 92 23 223 31 326 20 557 -11 832 -113 47 -17 114 -40
149 -50 35 -11 69 -24 75 -30 12 -9 71 -31 231 -84 39 -13 84 -31 100 -40 17
-9 39 -16 50 -16 11 0 34 -7 50 -16 29 -16 120 -49 220 -81 28 -8 75 -26 105
-38 30 -13 75 -26 99 -30 24 -4 67 -18 95 -31 28 -13 60 -24 71 -24 11 0 34
-9 52 -19 17 -11 60 -25 95 -32 34 -6 77 -19 94 -29 17 -10 54 -23 81 -28 28
-6 72 -20 99 -30 27 -11 67 -22 89 -26 22 -4 50 -14 63 -22 13 -9 55 -22 94
-30 39 -8 83 -21 98 -29 15 -8 53 -21 86 -29 58 -15 146 -42 234 -72 25 -9 79
-24 120 -33 41 -9 85 -23 97 -29 12 -7 54 -19 93 -27 39 -8 84 -22 99 -30 16
-8 48 -18 72 -21 24 -4 71 -17 104 -29 33 -12 81 -26 108 -29 26 -4 78 -18
117 -32 38 -13 82 -24 97 -24 16 -1 53 -10 83 -21 30 -11 82 -26 115 -34 33
-8 76 -21 96 -29 20 -8 67 -20 104 -26 37 -6 80 -17 95 -25 16 -8 61 -20 102
-26 40 -7 86 -18 102 -26 16 -8 71 -21 123 -29 52 -8 107 -21 122 -29 15 -7
59 -19 97 -26 38 -6 90 -20 115 -30 26 -10 83 -23 127 -29 45 -6 101 -19 124
-29 24 -10 72 -22 108 -25 36 -4 94 -17 130 -29 51 -17 89 -22 175 -22 101 0
114 2 163 28 69 36 87 73 77 152 -4 33 -14 63 -23 71 -62 55 -264 163 -343
184 -24 6 -67 20 -94 30 -28 10 -73 21 -100 25 -28 3 -70 15 -95 25 -25 10
-81 23 -125 28 -44 6 -96 18 -117 26 -20 9 -69 20 -110 26 -40 6 -100 20 -133
30 -33 11 -95 24 -137 29 -42 6 -94 17 -115 26 -21 8 -86 21 -146 30 -59 8
-119 21 -135 29 -15 7 -61 19 -102 26 -41 7 -88 19 -103 27 -16 8 -66 20 -111
28 -46 7 -97 20 -113 29 -17 8 -61 20 -98 26 -37 6 -80 17 -96 25 -16 9 -57
21 -91 29 -35 8 -89 24 -120 35 -32 12 -65 21 -75 21 -10 0 -40 12 -68 25 -27
14 -58 25 -68 25 -10 0 -46 11 -80 24 -34 14 -82 30 -106 36 -24 6 -54 18 -65
25 -12 8 -43 19 -71 26 -27 7 -72 23 -100 36 -27 12 -57 23 -65 23 -8 0 -35
11 -60 24 -25 13 -58 26 -75 30 -16 4 -36 13 -44 19 -8 7 -39 22 -70 33 -167
64 -213 83 -224 92 -7 5 -30 15 -52 22 -22 7 -51 21 -64 31 -13 11 -31 19 -41
19 -9 0 -33 11 -52 24 -20 13 -52 29 -72 36 -19 6 -38 16 -42 21 -3 6 -29 21
-57 35 -76 36 -109 53 -137 69 -14 8 -41 22 -60 30 -19 9 -42 20 -50 25 -8 6
-38 21 -67 35 -28 13 -54 28 -57 34 -4 5 -23 15 -44 22 -20 6 -51 24 -67 38
-47 40 -322 174 -385 186 -19 4 -48 14 -63 22 -41 21 -266 43 -522 52 -121 4
-228 11 -238 16 -30 13 -37 40 -37 153 l0 110 28 10 c15 6 72 25 127 42 55 17
118 40 140 50 22 10 57 26 78 34 20 8 37 19 37 24 0 6 17 17 38 25 40 16 145
127 162 172 16 41 12 142 -6 178 -9 18 -31 46 -48 63 -17 18 -41 45 -53 61
-25 35 -206 128 -268 138 -21 4 -51 13 -66 21 -15 7 -67 18 -116 24 -98 11
-399 11 -508 0z"/>
<path d="M2525 6372 c-53 -18 -85 -60 -85 -113 0 -39 37 -139 51 -139 5 0 34
-21 64 -47 30 -27 80 -68 110 -93 30 -25 63 -54 73 -64 9 -11 27 -29 40 -40
12 -12 48 -45 80 -75 31 -29 73 -65 92 -79 19 -15 54 -44 78 -65 40 -36 46
-38 99 -35 54 3 59 5 90 46 73 96 57 116 -362 483 -82 72 -159 141 -170 154
-19 22 -116 76 -132 74 -4 -1 -17 -4 -28 -7z"/>
<path d="M23018 6352 c-25 -15 -54 -39 -63 -54 -9 -15 -20 -28 -26 -28 -5 0
-28 -17 -52 -38 -23 -21 -53 -46 -67 -55 -25 -18 -113 -97 -253 -229 -45 -43
-85 -78 -89 -78 -11 0 -64 -82 -71 -111 -9 -37 10 -95 40 -119 19 -14 40 -20
79 -20 53 0 56 2 135 73 45 39 94 81 109 92 15 11 41 34 58 50 30 31 81 76
172 155 29 25 66 59 84 75 18 17 44 40 58 51 40 31 62 82 61 142 0 60 -17 85
-72 108 -42 18 -46 17 -103 -14z"/>
<path d="M5587 5732 c-9 -10 -30 -69 -46 -131 -28 -106 -32 -115 -79 -160 -39
-37 -63 -51 -113 -65 -35 -10 -89 -26 -119 -36 -76 -25 -437 -42 -797 -38
-329 3 -317 6 -319 -90 -1 -31 -9 -241 -17 -467 -26 -681 -31 -999 -18 -1023
10 -18 21 -22 61 -22 62 0 100 -14 100 -38 0 -28 -62 -82 -103 -89 -61 -10
-71 -30 -71 -143 0 -61 4 -104 11 -111 7 -7 43 -11 91 -10 59 1 82 -2 91 -13
32 -39 -11 -74 -105 -83 -70 -7 -79 -24 -87 -161 -6 -94 -5 -104 14 -123 21
-21 24 -21 135 -3 36 7 64 -15 64 -50 0 -31 -16 -42 -70 -51 -143 -22 -150
-32 -150 -229 0 -132 1 -136 24 -151 21 -14 35 -15 108 -5 46 7 130 23 188 35
58 13 166 29 240 35 169 14 175 18 165 125 -4 38 -15 108 -26 155 -11 47 -21
94 -24 105 -2 11 -9 88 -15 170 -6 83 -19 186 -30 230 -37 160 -55 374 -33
396 9 9 94 13 305 16 295 4 343 10 352 42 3 9 6 69 8 134 2 96 -1 120 -14 133
-13 13 -46 17 -179 19 -160 3 -224 12 -224 31 0 18 73 32 205 38 74 4 145 9
157 11 30 7 47 63 38 133 -17 149 -30 156 -215 119 -41 -8 -121 -20 -178 -27
-57 -6 -137 -22 -178 -36 -85 -27 -136 -31 -157 -10 -28 29 -61 226 -82 503
-6 78 -5 82 17 96 15 9 77 18 178 25 135 10 218 22 480 73 30 6 72 21 92 34
20 14 64 31 98 38 36 9 72 25 88 39 15 14 46 35 68 48 23 12 56 41 73 64 17
22 39 52 50 66 21 25 64 161 82 255 14 76 2 131 -39 176 -38 43 -69 50 -95 21z"/>
<path d="M11000 5533 c-14 -3 -52 -16 -84 -30 -42 -18 -98 -29 -193 -39 -74
-7 -147 -21 -163 -29 -57 -29 -73 -82 -49 -156 15 -45 40 -66 89 -74 52 -9 52
-31 0 -39 -57 -9 -75 -39 -66 -117 3 -33 12 -72 20 -86 10 -20 11 -36 4 -62
-11 -39 12 -146 41 -191 13 -20 16 -55 16 -185 0 -138 4 -178 28 -290 16 -71
33 -153 38 -181 15 -78 25 -83 149 -76 103 7 105 8 118 36 9 18 17 95 22 225
9 203 18 283 45 411 9 42 20 165 25 280 10 216 17 277 49 430 38 174 27 194
-89 173z m-340 -568 c19 -23 4 -45 -29 -45 -40 0 -50 19 -21 42 27 22 34 22
50 3z"/>
<path d="M15438 5530 c-24 -15 -27 -51 -33 -420 -6 -348 -16 -537 -40 -750
-20 -178 -35 -464 -35 -685 0 -216 -13 -454 -35 -630 -9 -66 -20 -212 -27
-325 -15 -279 -10 -290 122 -242 30 12 105 26 165 32 79 9 128 20 175 40 36
15 103 35 149 44 45 8 102 26 125 40 24 14 65 30 92 37 27 6 69 24 94 39 25
16 64 34 86 40 23 7 55 24 70 37 16 14 52 35 79 47 28 13 56 30 63 39 8 9 34
26 59 38 24 12 47 28 50 35 3 8 21 24 41 36 21 12 81 67 135 122 143 147 174
186 225 286 15 30 35 67 45 81 9 14 28 57 41 95 13 38 31 86 41 107 9 22 20
76 26 120 29 245 30 280 14 487 -18 231 -29 301 -55 346 -10 17 -25 56 -34 86
-8 30 -25 67 -36 81 -11 14 -26 41 -32 59 -18 55 -152 227 -219 282 -19 15
-45 37 -59 50 -14 13 -41 31 -60 41 -19 10 -48 28 -63 41 -15 13 -47 29 -70
35 -23 6 -62 24 -86 39 -25 17 -75 36 -120 46 -42 9 -95 27 -118 41 -31 18
-72 28 -165 39 -67 8 -157 24 -198 34 -142 36 -373 53 -412 30z m632 -300 c81
-12 253 -88 269 -118 4 -10 11 -70 15 -136 8 -144 23 -252 42 -288 20 -39 59
-65 107 -73 73 -12 107 -31 107 -59 0 -29 -40 -46 -111 -46 -70 0 -79 -14 -79
-118 0 -101 13 -158 40 -172 10 -5 48 -10 84 -10 59 0 67 -2 82 -25 14 -21 15
-31 6 -50 -11 -24 -16 -25 -93 -25 -114 0 -119 -5 -119 -129 0 -101 11 -159
32 -173 7 -4 45 -8 85 -8 91 0 119 -21 93 -71 -9 -16 -22 -19 -89 -19 -127 0
-119 20 -123 -327 l-3 -292 -35 -37 c-19 -20 -59 -48 -89 -61 -30 -13 -67 -35
-82 -47 -15 -13 -45 -26 -66 -30 -21 -4 -71 -23 -111 -44 -79 -39 -100 -38
-113 9 -4 13 -7 211 -8 439 -1 400 -13 1169 -26 1661 -9 303 -26 280 185 249z"/>
<path d="M16043 4579 c-38 -11 -44 -30 -26 -89 29 -98 42 -236 48 -536 7 -284
9 -312 27 -342 26 -42 61 -65 87 -57 30 9 35 33 56 298 19 239 18 374 -3 560
-14 123 -21 151 -37 163 -21 16 -102 17 -152 3z"/>
<path d="M1462 5379 c-43 -13 -72 -61 -72 -119 0 -70 17 -92 88 -117 34 -12
75 -32 91 -44 16 -11 58 -27 95 -35 36 -7 83 -25 103 -38 21 -14 67 -31 103
-39 36 -8 86 -26 111 -40 25 -15 74 -33 110 -40 36 -8 85 -26 110 -40 25 -15
76 -33 113 -41 38 -8 81 -23 97 -35 15 -11 61 -30 103 -41 41 -11 91 -31 112
-45 57 -39 99 -34 157 18 44 42 47 47 47 96 0 42 -5 56 -24 74 -40 37 -108 74
-171 92 -33 9 -78 27 -101 40 -22 13 -71 31 -109 40 -38 9 -88 27 -110 40 -23
13 -72 31 -109 39 -37 9 -86 27 -110 41 -23 13 -66 29 -96 36 -30 6 -81 24
-113 40 -32 16 -82 35 -110 41 -29 6 -83 26 -120 45 -74 37 -142 48 -195 32z"/>
<path d="M24050 5376 c-26 -6 -62 -21 -80 -33 -19 -12 -66 -29 -103 -37 -38
-9 -87 -27 -111 -41 -23 -13 -66 -29 -96 -36 -30 -6 -80 -23 -110 -39 -30 -15
-82 -35 -115 -44 -33 -10 -79 -28 -102 -42 -23 -13 -72 -31 -109 -40 -37 -8
-86 -26 -109 -39 -22 -13 -72 -31 -110 -40 -39 -9 -79 -25 -90 -35 -11 -10
-34 -25 -52 -34 -31 -16 -53 -60 -53 -109 0 -34 29 -82 65 -106 43 -29 93 -25
147 12 21 13 59 28 85 31 26 4 80 22 118 41 39 19 95 39 127 45 31 6 76 24
100 39 23 16 68 34 98 40 30 7 71 23 90 36 19 13 69 31 110 40 41 9 91 27 110
40 19 13 69 31 110 40 41 9 91 27 110 40 20 14 50 28 69 31 38 8 111 92 111
128 0 29 -57 105 -87 117 -32 12 -67 11 -123 -5z"/>
<path d="M7653 4994 c-14 -22 -15 -34 -5 -79 12 -59 3 -113 -24 -140 -22 -22
-37 -19 -67 15 -44 49 -117 35 -138 -27 -17 -51 -5 -81 40 -99 43 -17 81 -74
81 -120 0 -37 -30 -86 -69 -115 -31 -23 -40 -52 -21 -64 6 -4 19 -24 30 -46
25 -48 49 -50 97 -9 23 21 44 30 68 30 40 0 55 -20 55 -72 0 -54 23 -78 76
-78 52 0 114 23 114 42 0 7 -7 22 -15 32 -28 37 -19 64 30 88 39 19 49 20 78
10 43 -16 62 -15 96 3 33 16 54 60 49 101 -2 24 -11 31 -52 47 -56 20 -72 37
-81 85 -7 35 2 55 53 122 38 51 40 79 9 108 -27 26 -64 28 -114 7 -79 -33
-120 -9 -132 75 -9 68 -15 78 -57 96 -51 21 -81 18 -101 -12z"/>
<path d="M11727 5003 c-14 -16 -16 -35 -14 -104 1 -67 -2 -90 -16 -112 -23
-35 -41 -34 -74 3 -31 35 -78 40 -114 11 -18 -14 -23 -29 -23 -67 -1 -47 0
-49 39 -69 98 -50 103 -181 9 -237 -37 -22 -44 -48 -18 -69 9 -8 27 -31 40
-51 14 -21 29 -38 34 -38 6 0 26 16 46 35 63 64 134 40 134 -45 0 -56 19 -74
74 -72 40 2 106 24 106 36 0 2 -7 20 -15 41 -21 49 -14 66 40 95 43 24 46 24
74 7 45 -26 78 -22 112 16 57 62 51 102 -22 128 -32 12 -49 25 -61 50 -26 49
-22 81 13 125 34 43 59 87 59 104 0 6 -11 22 -25 35 -28 29 -84 33 -125 10
-64 -37 -130 4 -130 81 0 57 -31 93 -85 101 -31 4 -44 1 -58 -14z"/>
<path d="M19421 4994 c-17 -21 -21 -41 -21 -98 0 -86 -16 -116 -62 -116 -18 0
-42 10 -60 25 -49 42 -74 34 -103 -31 -14 -31 -25 -63 -25 -70 0 -8 22 -25 50
-39 42 -21 51 -31 60 -67 13 -46 5 -123 -13 -138 -7 -6 -23 -18 -36 -28 -38
-30 -31 -69 20 -114 24 -20 50 -38 57 -38 7 0 22 16 33 35 36 60 74 46 119
-45 36 -72 47 -80 105 -80 67 0 80 14 72 79 -4 37 -1 55 14 79 22 38 26 38
105 11 34 -12 69 -19 77 -16 17 6 51 112 43 133 -3 7 -23 22 -44 33 -29 15
-43 31 -55 63 -10 24 -17 49 -17 55 0 17 48 98 70 118 31 28 25 46 -31 94
l-52 45 -23 -27 c-29 -34 -65 -48 -104 -40 -39 7 -43 15 -51 96 -7 79 -26 107
-75 107 -23 0 -38 -7 -53 -26z"/>
<path d="M18462 4185 c-11 -14 -23 -45 -27 -68 -8 -49 -25 -70 -68 -88 -18 -7
-45 -21 -60 -32 -35 -24 -46 -16 -67 51 -11 36 -20 48 -38 50 -31 5 -66 -19
-102 -69 -28 -40 -29 -42 -15 -76 23 -54 20 -136 -5 -158 -20 -18 -21 -18 -40
1 -21 21 -29 102 -16 160 10 43 -19 141 -45 155 -23 12 -217 -3 -262 -20 -38
-15 -47 -45 -58 -210 -7 -92 -19 -179 -35 -240 -15 -55 -29 -149 -35 -221 -11
-155 -15 -182 -45 -299 -15 -60 -27 -146 -33 -240 -6 -93 -17 -169 -30 -211
-31 -102 -44 -186 -31 -210 13 -24 28 -27 160 -34 75 -3 128 -12 185 -31 99
-32 198 -43 220 -25 13 11 14 65 9 466 -7 416 -6 456 10 498 10 25 21 46 25
46 5 0 16 19 27 43 24 54 71 114 159 200 79 78 96 87 165 87 60 0 94 -15 109
-47 13 -29 14 -103 2 -136 -6 -16 -5 -43 2 -78 10 -43 19 -58 46 -76 44 -30
72 -29 101 2 13 14 32 25 42 25 24 0 90 -34 107 -54 21 -25 40 -19 87 29 48
50 54 74 25 92 -11 7 -36 37 -56 68 -43 64 -43 84 -1 178 23 52 30 60 77 79
57 24 58 28 22 123 -20 52 -49 69 -77 46 -7 -6 -34 -14 -59 -17 -45 -6 -48 -5
-82 32 -22 24 -54 45 -82 54 -53 17 -60 27 -68 93 -8 62 -33 87 -84 87 -30 0
-44 -6 -59 -25z m-647 -988 c30 -46 -13 -136 -53 -111 -25 16 -38 78 -24 109
15 33 56 34 77 2z m-10 -382 c36 -35 35 -105 -1 -134 -33 -26 -60 -26 -101 -1
-28 17 -33 25 -33 59 0 55 8 71 44 87 45 19 64 17 91 -11z"/>
<path d="M6715 4186 c-14 -10 -20 -30 -23 -76 l-5 -62 -63 -29 c-75 -33 -97
-29 -155 27 l-37 36 -51 -37 c-57 -41 -65 -71 -31 -115 26 -34 25 -82 -3 -117
-13 -15 -31 -40 -40 -55 -10 -16 -21 -28 -26 -28 -20 0 -31 72 -31 210 0 201
13 192 -237 154 -37 -5 -57 -45 -68 -139 -5 -33 -16 -89 -27 -125 -10 -36 -25
-139 -33 -230 -9 -91 -26 -210 -39 -265 -14 -55 -27 -138 -31 -185 -10 -135
-25 -239 -46 -319 -10 -41 -24 -137 -30 -214 -15 -179 -18 -175 142 -188 63
-5 162 -21 221 -36 126 -30 173 -27 189 14 11 29 8 172 -10 568 -7 138 -12
259 -13 271 -1 25 53 140 98 209 37 56 85 115 129 157 17 16 41 39 55 53 33
31 71 45 126 45 59 0 80 -12 104 -60 24 -47 26 -83 5 -100 -30 -25 -18 -83 30
-149 46 -62 63 -72 84 -47 17 20 96 46 120 39 11 -3 27 -16 36 -29 21 -32 43
-30 93 6 53 38 57 76 12 117 -42 37 -53 85 -41 178 11 89 26 111 83 120 47 8
64 36 54 89 -12 66 -62 90 -133 64 -39 -14 -44 -14 -75 4 -18 11 -46 33 -63
48 -16 15 -47 33 -67 39 -52 17 -62 33 -54 86 7 43 6 45 -26 65 -38 23 -96 26
-123 6z m-621 -982 c3 -9 6 -35 6 -59 0 -53 -19 -73 -58 -59 -37 13 -52 71
-28 108 19 30 70 36 80 10z m-11 -396 c26 -31 23 -112 -5 -132 -32 -23 -94
-20 -118 4 -32 32 -22 118 18 148 23 18 82 7 105 -20z"/>
<path d="M12956 4149 c-55 -25 -91 -33 -171 -39 -118 -10 -257 -56 -276 -92
-15 -28 -4 -157 27 -323 17 -90 28 -194 34 -335 9 -202 13 -236 45 -395 9 -44
20 -169 25 -278 5 -108 14 -206 20 -217 14 -26 55 -26 163 -1 45 11 98 23 118
26 61 9 63 16 70 244 4 113 12 292 19 396 17 251 28 284 153 433 27 31 61 63
75 71 15 7 37 23 49 34 15 13 41 22 76 25 51 4 53 3 93 -40 65 -71 69 -114 55
-689 -6 -262 -9 -483 -5 -492 9 -25 42 -31 69 -13 36 24 131 46 195 46 110 0
318 51 363 88 22 19 21 67 -3 157 -33 119 -48 196 -60 307 -6 59 -19 132 -30
163 -11 31 -27 110 -35 175 -10 75 -24 138 -39 172 -13 29 -27 72 -31 95 -4
24 -17 57 -30 75 -14 18 -33 49 -44 68 -31 54 -111 131 -176 170 -59 34 -62
35 -175 35 -111 0 -117 -1 -171 -33 -31 -17 -63 -32 -72 -32 -19 0 -128 -103
-146 -137 -14 -28 -37 -30 -51 -4 -5 11 -10 86 -10 173 0 123 -3 158 -16 176
-19 28 -25 28 -108 -9z m866 -846 c22 -20 23 -36 2 -69 -27 -40 -50 -48 -74
-24 -22 22 -27 79 -8 98 17 17 58 15 80 -5z m55 -391 c27 -32 28 -50 8 -99
-19 -45 -30 -53 -72 -53 -41 0 -70 27 -79 75 -18 97 82 151 143 77z"/>
<path d="M7643 4093 c-33 -28 -72 -207 -88 -408 -9 -109 -23 -206 -39 -268
-17 -65 -28 -146 -35 -249 -7 -106 -18 -182 -36 -248 -14 -54 -27 -136 -30
-190 -3 -52 -11 -134 -17 -183 -11 -84 -10 -88 11 -111 40 -43 179 -73 401
-87 85 -5 171 -12 192 -15 30 -5 39 -2 52 18 13 20 14 60 5 333 -5 171 -13
342 -19 380 -31 220 -41 353 -50 650 -6 182 -13 338 -16 348 -9 30 -40 37
-177 43 -119 5 -135 3 -154 -13z m151 -823 c66 -58 52 -116 -32 -127 -35 -5
-42 -2 -57 21 -19 29 -15 74 10 113 20 31 37 29 79 -7z m5 -436 c28 -32 32
-42 29 -87 -3 -48 -5 -51 -46 -73 -40 -21 -45 -22 -84 -8 -62 22 -68 30 -68
93 0 65 9 81 64 110 45 23 58 19 105 -35z"/>
<path d="M8581 4092 c-6 -11 -11 -63 -11 -114 0 -94 -16 -223 -45 -378 -9 -47
-20 -182 -25 -300 -9 -214 -16 -282 -45 -415 -9 -39 -20 -170 -25 -298 -9
-218 -20 -320 -40 -397 -23 -86 -44 -362 -54 -684 -1 -65 15 -76 81 -54 26 9
84 21 128 27 50 6 105 21 145 40 36 16 92 32 125 36 33 4 71 14 84 22 l24 15
-7 176 c-4 96 -12 186 -17 199 -6 16 -5 38 2 63 9 29 9 88 -1 242 -7 111 -12
219 -12 238 1 19 -4 98 -9 174 -10 136 -6 218 11 246 13 21 20 9 36 -66 14
-69 32 -95 113 -168 13 -11 38 -36 55 -54 17 -18 66 -51 109 -72 68 -34 93
-41 175 -49 147 -13 213 -2 327 54 79 38 110 61 171 122 41 42 74 81 74 88 0
7 14 29 30 50 17 21 37 63 46 93 9 29 28 79 42 110 24 53 27 70 30 222 4 176
-8 298 -34 338 -9 13 -24 48 -34 78 -11 30 -33 71 -50 92 -16 20 -30 41 -30
47 0 6 -17 28 -37 48 -21 21 -45 45 -53 53 -28 28 -140 95 -172 104 -150 41
-407 25 -483 -29 -22 -15 -57 -34 -78 -40 -21 -7 -65 -39 -100 -72 -65 -62
-99 -73 -116 -40 -6 10 -18 63 -26 117 -18 106 -26 128 -52 138 -9 4 -67 10
-129 13 -106 6 -112 5 -123 -15z m897 -419 c16 -12 47 -26 68 -32 43 -12 101
-66 129 -121 9 -19 26 -45 38 -57 28 -32 46 -246 30 -374 -10 -79 -17 -97 -52
-150 -23 -34 -41 -65 -41 -70 0 -4 -32 -29 -70 -55 -92 -61 -146 -69 -205 -28
-22 15 -59 36 -82 46 -27 12 -49 31 -60 51 -9 18 -26 45 -37 60 -33 45 -30
161 8 252 38 91 53 107 113 112 42 4 53 1 80 -21 38 -32 57 -83 44 -117 -11
-29 -80 -94 -110 -104 -24 -7 -29 -46 -8 -63 6 -5 37 -17 67 -26 79 -24 162
-6 208 43 59 63 66 85 66 211 1 149 -7 183 -49 222 -19 17 -37 39 -40 50 -13
37 -173 98 -262 98 -28 0 -54 -4 -58 -10 -3 -5 -38 -19 -77 -32 -55 -17 -75
-30 -87 -50 -9 -15 -32 -34 -52 -42 -31 -13 -37 -21 -43 -55 -7 -44 -23 -61
-37 -40 -16 25 -10 67 12 82 11 8 24 28 28 43 4 16 21 38 38 49 17 11 37 33
45 50 10 22 24 33 57 42 25 7 54 21 65 32 32 28 44 31 148 28 81 -2 102 -6
126 -24z"/>
<path d="M11713 4100 c-39 -16 -77 -182 -92 -405 -6 -91 -18 -175 -35 -239
-18 -69 -29 -145 -36 -250 -6 -106 -17 -179 -35 -246 -17 -66 -28 -140 -35
-246 -5 -83 -15 -171 -21 -196 -14 -53 -9 -71 25 -94 58 -37 260 -74 411 -74
45 0 107 -7 139 -15 53 -14 61 -14 76 0 10 9 20 26 22 39 9 46 -11 534 -27
641 -29 209 -36 289 -45 599 -13 417 -17 453 -47 473 -27 18 -263 28 -300 13z
m151 -840 c48 -53 48 -86 1 -106 -73 -30 -111 -4 -103 71 10 85 46 97 102 35z
m-12 -412 c22 -18 44 -42 48 -54 15 -37 -3 -87 -39 -111 -39 -26 -77 -29 -126
-9 -29 13 -34 20 -40 60 -9 59 4 96 45 124 44 30 64 28 112 -10z"/>
<path d="M19393 4103 c-50 -6 -56 -23 -65 -172 -5 -92 -15 -168 -33 -236 -17
-66 -29 -150 -35 -250 -7 -93 -19 -186 -34 -245 -31 -123 -35 -149 -45 -310
-6 -89 -18 -169 -36 -235 -32 -124 -37 -197 -13 -221 36 -37 207 -71 418 -83
85 -5 176 -15 202 -22 39 -11 50 -11 60 -1 18 18 14 139 -11 307 -15 100 -24
232 -31 460 -10 325 -19 451 -45 630 -8 55 -17 154 -21 220 -3 68 -12 129 -19
140 -12 19 -23 21 -136 21 -68 0 -138 -1 -156 -3z m147 -818 c7 -8 15 -35 18
-60 5 -51 -15 -85 -52 -85 -29 0 -86 37 -86 56 0 15 45 82 65 96 16 12 42 9
55 -7z m-10 -435 c35 -38 44 -76 30 -129 -12 -47 -33 -61 -89 -61 -44 0 -63
18 -95 88 l-18 40 38 46 c48 58 90 63 134 16z"/>
<path d="M20341 4093 c-35 -28 -48 -117 -65 -423 -8 -146 -22 -299 -30 -340
-30 -145 -37 -217 -46 -430 -6 -141 -16 -251 -28 -315 -11 -55 -23 -113 -26
-130 -3 -16 -10 -133 -15 -260 -8 -180 -16 -258 -36 -360 -32 -157 -44 -340
-25 -384 12 -31 42 -42 55 -21 14 23 69 41 152 49 63 7 106 18 151 39 37 18
88 32 127 37 47 5 68 12 74 24 6 10 8 99 5 207 -3 104 -4 207 -3 229 3 44 4
163 1 210 -7 132 -1 552 8 581 16 48 35 42 65 -20 32 -67 153 -178 245 -223
127 -62 351 -64 464 -4 32 17 65 31 73 31 41 0 208 193 267 309 52 104 102
344 92 442 -11 110 -56 311 -76 339 -11 15 -28 47 -38 71 -22 50 -152 195
-185 205 -12 4 -36 19 -54 34 -44 39 -163 55 -342 46 -106 -5 -142 -10 -170
-25 -20 -11 -64 -34 -98 -50 -68 -34 -156 -113 -172 -154 -13 -35 -40 -46 -56
-24 -7 9 -15 69 -18 137 -3 65 -11 129 -17 140 -16 30 -51 40 -160 47 -84 5
-98 3 -119 -14z m866 -424 c15 -15 51 -32 78 -38 70 -16 126 -82 179 -210 38
-91 39 -101 40 -206 1 -102 -1 -115 -31 -180 -17 -38 -36 -84 -42 -100 -12
-31 -86 -115 -101 -115 -5 0 -23 -12 -41 -27 -29 -25 -41 -28 -103 -28 -65 1
-76 4 -126 37 -59 39 -99 78 -121 118 -18 32 -18 240 -1 291 21 59 63 92 127
97 79 6 95 -10 95 -99 0 -87 -11 -115 -52 -132 -52 -22 -62 -39 -38 -70 28
-35 103 -52 161 -37 65 18 117 47 124 71 4 11 21 44 38 71 30 47 32 58 32 139
0 76 -3 90 -22 111 -11 13 -26 41 -32 63 -16 59 -71 108 -161 141 -107 39
-160 41 -243 10 -37 -14 -75 -26 -85 -26 -25 0 -85 -52 -107 -94 -26 -48 -50
-44 -49 8 1 30 9 45 37 71 19 17 38 41 41 52 4 14 30 31 71 49 36 15 65 30 65
35 0 17 61 28 147 26 84 -2 94 -4 120 -28z"/>
<path d="M640 3927 c-50 -17 -84 -87 -74 -153 8 -55 29 -79 81 -93 43 -12
1916 -16 1936 -5 50 29 85 67 91 98 8 43 -4 71 -53 124 l-40 42 -953 -1 c-711
0 -962 -3 -988 -12z"/>
<path d="M23022 3901 c-53 -42 -64 -70 -53 -138 5 -30 14 -42 51 -64 l45 -27
952 -1 c919 -1 953 0 996 18 55 24 67 44 67 109 0 62 -31 112 -80 129 -26 9
-275 12 -982 12 l-946 1 -50 -39z"/>
<path d="M2639 2900 c-15 -4 -40 -18 -57 -30 -16 -12 -60 -28 -98 -36 -37 -8
-88 -26 -112 -40 -23 -14 -68 -32 -100 -40 -31 -8 -76 -26 -99 -39 -23 -14
-72 -32 -110 -41 -37 -8 -87 -26 -110 -40 -23 -13 -72 -31 -109 -40 -37 -8
-86 -26 -108 -39 -23 -13 -63 -29 -91 -35 -27 -7 -63 -17 -80 -23 -38 -14
-158 -86 -167 -101 -15 -23 -8 -101 13 -136 30 -50 47 -60 105 -60 39 0 60 6
90 27 23 15 72 34 117 44 43 9 95 28 115 42 20 14 70 32 110 41 41 9 87 26
104 37 17 12 66 30 108 40 43 10 99 31 124 47 25 16 64 32 87 36 22 4 66 20
97 36 32 16 80 34 107 40 66 14 232 95 245 119 15 28 12 98 -5 131 -32 62 -96
84 -176 60z"/>
<path d="M22868 2890 c-41 -32 -61 -84 -53 -140 7 -51 24 -73 65 -85 14 -4 40
-18 58 -32 18 -14 63 -30 104 -39 73 -15 101 -26 129 -51 9 -7 49 -20 90 -29
41 -8 91 -26 112 -40 21 -14 70 -32 110 -40 40 -9 88 -27 107 -40 19 -13 64
-30 99 -38 34 -8 80 -26 100 -40 20 -14 64 -31 96 -38 33 -6 88 -26 123 -45
49 -25 76 -33 117 -33 l53 0 42 58 c45 62 47 93 12 141 -25 34 -149 98 -226
115 -37 9 -86 27 -109 40 -23 14 -64 30 -92 37 -27 6 -72 24 -100 40 -27 15
-81 35 -118 43 -38 9 -87 27 -110 40 -23 14 -73 32 -110 40 -38 9 -87 27 -110
40 -23 14 -71 32 -107 40 -36 9 -92 29 -124 46 -69 35 -122 39 -158 10z"/>
<path d="M22443 1955 c-49 -30 -63 -72 -45 -134 12 -39 33 -62 162 -181 45
-41 98 -90 117 -108 19 -18 49 -42 67 -54 17 -12 46 -35 65 -52 18 -17 54 -50
80 -73 25 -23 62 -58 81 -77 42 -41 99 -59 154 -46 21 4 43 13 49 19 27 27 15
211 -13 211 -7 0 -179 148 -255 219 -99 93 -311 274 -330 281 -58 22 -89 21
-132 -5z"/>
<path d="M3055 1956 c-30 -13 -99 -72 -163 -138 -4 -4 -32 -30 -62 -57 -30
-27 -68 -62 -83 -77 -16 -16 -43 -37 -60 -47 -18 -11 -45 -32 -62 -48 -99 -96
-125 -119 -135 -119 -6 0 -22 -26 -36 -57 -23 -53 -24 -61 -13 -97 20 -58 43
-83 89 -90 50 -8 102 12 148 57 18 18 53 50 78 72 24 22 57 51 72 65 43 41
146 131 199 175 26 22 63 56 83 76 19 20 42 40 52 45 9 5 33 34 53 64 46 69
44 108 -10 158 -28 26 -43 32 -77 32 -24 -1 -56 -7 -73 -14z"/>
</g>
</svg>
